<svg width="23" height="18" viewBox="0 0 23 18" fill="none" xmlns="http://www.w3.org/2000/svg">
<path d="M21.7816 8.50205L22.2932 9.01363C22.365 9.18278 22.3647 9.37451 22.2935 9.54429L21.6872 10.1506C19.6526 11.9951 17.1299 13.251 14.4839 13.946C12.7136 14.4071 10.8736 14.6236 9.04443 14.5285C8.89372 14.5158 8.80882 14.6706 8.70167 14.7511C6.51226 16.7567 3.5588 17.9157 0.587221 17.908C0.200273 17.937 -0.0884277 17.4473 0.157985 17.136C0.900403 16.145 1.64155 15.152 2.3881 14.1638C2.12897 14.1292 1.86475 14.1473 1.60753 14.098C1.38369 14.0503 1.24316 13.8239 1.25174 13.6036C1.24983 10.8374 1.25206 8.0709 1.25079 5.30472C1.25206 5.14574 1.23998 4.98549 1.26478 4.82779C1.29435 4.62843 1.46922 4.46564 1.66921 4.44688C1.90831 4.42018 2.14995 4.42336 2.38937 4.39569C1.71055 3.50829 1.04952 2.60753 0.377055 1.71504C0.277854 1.57832 0.159894 1.45209 0.0877187 1.29789C-0.0222929 1.04989 0.137002 0.731615 0.399312 0.666435C0.544616 0.634322 0.695326 0.649583 0.843173 0.651174C3.80235 0.719533 6.72211 1.91853 8.86765 3.95915C8.91438 4.00779 8.97575 4.038 9.04443 4.02973C10.9385 3.92894 12.8443 4.16804 14.6712 4.66723C17.288 5.38771 19.7769 6.65824 21.7816 8.50205ZM14.7335 7.40225C14.1644 6.94249 13.3781 6.77302 12.6691 6.95171C12.022 7.10655 11.4526 7.54946 11.1369 8.13418C10.8202 8.70967 10.7579 9.4187 10.9712 10.0397C11.1579 10.6097 11.5715 11.0991 12.0984 11.3843C12.6637 11.6952 13.3574 11.7607 13.9708 11.5614C14.5418 11.3821 15.0366 10.977 15.3294 10.4559C15.6508 9.89404 15.7262 9.19931 15.5354 8.58122C15.3965 8.11796 15.1106 7.70367 14.7335 7.40225Z" fill="#5794FA"/>
</svg>
